<svg width="185" height="117" viewBox="0 0 185 117" fill="none" xmlns="http://www.w3.org/2000/svg">
<g filter="url(#filter0_dddd_186_2)">
<path d="M97.8957 58.5029C97.8957 55.1895 95.1253 52.5029 91.7075 52.5029C88.29 52.5029 85.5192 55.1895 85.5192 58.5029C85.5192 61.8168 88.29 64.5032 91.7075 64.5032C95.1253 64.5032 97.8957 61.8168 97.8957 58.5029Z" fill="#53C1DE"/>
<path fill-rule="evenodd" clip-rule="evenodd" d="M111.805 47.3637C113.112 42.2147 114.755 32.6668 108.964 29.4297C103.2 26.2069 95.6998 32.3826 91.7393 36.0896C87.7903 32.4195 80.0794 26.2703 74.2935 29.5176C68.5321 32.7513 70.3088 42.1408 71.6445 47.3221C66.2702 48.8021 57.0571 51.9898 57.0571 58.5028C57.0571 64.9974 66.2606 68.4658 71.6032 69.9443C70.2624 75.1541 68.5747 84.4096 74.3435 87.6362C80.151 90.8829 87.8379 84.8799 91.8352 81.1323C95.8211 84.8611 103.249 90.9035 109.014 87.6679C114.797 84.4221 113.291 75.0021 111.955 69.791C117.134 68.309 126.357 64.9164 126.357 58.5028C126.357 52.0524 117.095 48.8387 111.805 47.3637ZM111.149 67.0293C110.272 64.3372 109.088 61.4745 107.639 58.5173C109.022 55.6297 110.16 52.8039 111.012 50.1291C114.89 51.2192 123.397 53.7105 123.397 58.5028C123.397 63.3402 115.234 65.8551 111.149 67.0293ZM107.531 85.1836C103.23 87.5976 96.8402 81.8194 93.8966 79.0734C95.8495 77.0025 97.801 74.595 99.7055 71.9216C103.056 71.6336 106.221 71.1625 109.091 70.5191C110.031 74.2051 111.851 82.7589 107.531 85.1836ZM75.8227 85.1492C71.5211 82.7443 73.4872 74.4851 74.4735 70.6474C77.3121 71.2565 80.4543 71.6944 83.8125 71.9584C85.7295 74.5743 87.7376 76.9787 89.7612 79.0845C87.261 81.4294 80.1445 87.5653 75.8227 85.1492ZM60.0173 58.5028C60.0173 53.6474 68.4733 51.1742 72.4396 50.0868C73.3068 52.8216 74.4444 55.6812 75.8172 58.5728C74.4267 61.5075 73.2727 64.4123 72.3975 67.1794C68.6157 66.1299 60.0173 63.3613 60.0173 58.5028ZM75.7767 32.0016C80.0959 29.5776 86.7977 35.4812 89.6649 38.1384C87.6517 40.2345 85.6621 42.6209 83.7615 45.2218C80.5023 45.5147 77.3822 45.985 74.514 46.6152C73.4379 42.4363 71.4621 34.4231 75.7767 32.0016ZM101.823 48.3416C104.034 48.6122 106.153 48.9721 108.142 49.4123C107.545 51.2682 106.801 53.2089 105.924 55.1982C104.653 52.8605 103.289 50.5697 101.823 48.3416ZM91.7402 40.1896C93.1056 41.6239 94.4732 43.2255 95.8185 44.9631C93.0897 44.8378 90.3565 44.8374 87.6277 44.9613C88.9743 43.2398 90.3535 41.6405 91.7402 40.1896ZM77.5157 55.1961C76.6535 53.2137 75.916 51.2646 75.3136 49.3821C77.2909 48.9531 79.3995 48.6024 81.5963 48.3363C80.1262 50.5595 78.7645 52.8494 77.5157 55.1961ZM81.6594 68.8743C79.39 68.6288 77.2495 68.2959 75.2727 67.8787C75.8846 65.9632 76.6385 63.9721 77.519 61.9468C78.7851 64.318 80.1675 66.6302 81.6594 68.8743ZM91.8221 77.0189C90.4191 75.5509 89.0194 73.9272 87.6526 72.1809C90.3969 72.2853 93.1465 72.2856 95.8906 72.1668C94.5411 73.945 93.1785 75.571 91.8221 77.0189ZM105.952 61.8438C106.879 63.891 107.659 65.8713 108.28 67.7545C106.27 68.1991 104.101 68.5572 101.815 68.8231C103.292 66.5529 104.678 64.2264 105.952 61.8438ZM98.0534 69.1709C93.8556 69.4617 89.6319 69.4586 85.4328 69.1947C83.0468 65.8155 80.9227 62.2616 79.0893 58.5719C80.9139 54.8901 83.0224 51.3431 85.3972 47.9691C89.5993 47.6611 93.8273 47.6602 98.0294 47.9709C100.384 51.3446 102.489 54.8824 104.356 58.5311C102.511 62.2111 100.392 65.7653 98.0534 69.1709ZM107.485 31.9164C111.806 34.3324 109.883 42.9135 108.939 46.6449C106.064 46.0016 102.941 45.523 99.6728 45.2255C97.7684 42.5965 95.7954 40.206 93.8148 38.1369C96.7187 35.4225 103.207 29.5239 107.485 31.9164Z" fill="#53C1DE"/>
</g>
<g filter="url(#filter1_dddd_186_2)">
<path d="M97.8957 58.5029C97.8957 55.1895 95.1253 52.5029 91.7075 52.5029C88.29 52.5029 85.5192 55.1895 85.5192 58.5029C85.5192 61.8168 88.29 64.5032 91.7075 64.5032C95.1253 64.5032 97.8957 61.8168 97.8957 58.5029Z" fill="#53C1DE"/>
<path fill-rule="evenodd" clip-rule="evenodd" d="M111.805 47.3637C113.112 42.2147 114.755 32.6668 108.964 29.4297C103.2 26.2069 95.6998 32.3826 91.7393 36.0896C87.7903 32.4195 80.0794 26.2703 74.2935 29.5176C68.5321 32.7513 70.3088 42.1408 71.6445 47.3221C66.2702 48.8021 57.0571 51.9898 57.0571 58.5028C57.0571 64.9974 66.2606 68.4658 71.6032 69.9443C70.2624 75.1541 68.5747 84.4096 74.3435 87.6362C80.151 90.8829 87.8379 84.8799 91.8352 81.1323C95.8211 84.8611 103.249 90.9035 109.014 87.6679C114.797 84.4221 113.291 75.0021 111.955 69.791C117.134 68.309 126.357 64.9164 126.357 58.5028C126.357 52.0524 117.095 48.8387 111.805 47.3637ZM111.149 67.0293C110.272 64.3372 109.088 61.4745 107.639 58.5173C109.022 55.6297 110.16 52.8039 111.012 50.1291C114.89 51.2192 123.397 53.7105 123.397 58.5028C123.397 63.3402 115.234 65.8551 111.149 67.0293ZM107.531 85.1836C103.23 87.5976 96.8402 81.8194 93.8966 79.0734C95.8495 77.0025 97.801 74.595 99.7055 71.9216C103.056 71.6336 106.221 71.1625 109.091 70.5191C110.031 74.2051 111.851 82.7589 107.531 85.1836ZM75.8227 85.1492C71.5211 82.7443 73.4872 74.4851 74.4735 70.6474C77.3121 71.2565 80.4543 71.6944 83.8125 71.9584C85.7295 74.5743 87.7376 76.9787 89.7612 79.0845C87.261 81.4294 80.1445 87.5653 75.8227 85.1492ZM60.0173 58.5028C60.0173 53.6474 68.4733 51.1742 72.4396 50.0868C73.3068 52.8216 74.4444 55.6812 75.8172 58.5728C74.4267 61.5075 73.2727 64.4123 72.3975 67.1794C68.6157 66.1299 60.0173 63.3613 60.0173 58.5028ZM75.7767 32.0016C80.0959 29.5776 86.7977 35.4812 89.6649 38.1384C87.6517 40.2345 85.6621 42.6209 83.7615 45.2218C80.5023 45.5147 77.3822 45.985 74.514 46.6152C73.4379 42.4363 71.4621 34.4231 75.7767 32.0016ZM101.823 48.3416C104.034 48.6122 106.153 48.9721 108.142 49.4123C107.545 51.2682 106.801 53.2089 105.924 55.1982C104.653 52.8605 103.289 50.5697 101.823 48.3416ZM91.7402 40.1896C93.1056 41.6239 94.4732 43.2255 95.8185 44.9631C93.0897 44.8378 90.3565 44.8374 87.6277 44.9613C88.9743 43.2398 90.3535 41.6405 91.7402 40.1896ZM77.5157 55.1961C76.6535 53.2137 75.916 51.2646 75.3136 49.3821C77.2909 48.9531 79.3995 48.6024 81.5963 48.3363C80.1262 50.5595 78.7645 52.8494 77.5157 55.1961ZM81.6594 68.8743C79.39 68.6288 77.2495 68.2959 75.2727 67.8787C75.8846 65.9632 76.6385 63.9721 77.519 61.9468C78.7851 64.318 80.1675 66.6302 81.6594 68.8743ZM91.8221 77.0189C90.4191 75.5509 89.0194 73.9272 87.6526 72.1809C90.3969 72.2853 93.1465 72.2856 95.8906 72.1668C94.5411 73.945 93.1785 75.571 91.8221 77.0189ZM105.952 61.8438C106.879 63.891 107.659 65.8713 108.28 67.7545C106.27 68.1991 104.101 68.5572 101.815 68.8231C103.292 66.5529 104.678 64.2264 105.952 61.8438ZM98.0534 69.1709C93.8556 69.4617 89.6319 69.4586 85.4328 69.1947C83.0468 65.8155 80.9227 62.2616 79.0893 58.5719C80.9139 54.8901 83.0224 51.3431 85.3972 47.9691C89.5993 47.6611 93.8273 47.6602 98.0294 47.9709C100.384 51.3446 102.489 54.8824 104.356 58.5311C102.511 62.2111 100.392 65.7653 98.0534 69.1709ZM107.485 31.9164C111.806 34.3324 109.883 42.9135 108.939 46.6449C106.064 46.0016 102.941 45.523 99.6728 45.2255C97.7684 42.5965 95.7954 40.206 93.8148 38.1369C96.7187 35.4225 103.207 29.5239 107.485 31.9164Z" fill="#53C1DE"/>
</g>
<path d="M62.4218 32.6823C63.5173 31.3305 64.0491 29.6081 63.9065 27.874C63.7638 26.1398 62.9577 24.5275 61.656 23.373L61.2206 23.0276C59.8719 22.0102 58.1847 21.5481 56.5059 21.7363C54.8215 21.9083 53.2652 22.7132 52.1515 23.9886C52.0299 24.1032 51.9194 24.2288 51.8212 24.364C47.7745 29.3027 44.5083 34.8323 42.1365 40.7604C37.6532 51.9748 37.6209 64.4779 42.0464 75.7153C44.4092 81.6653 47.6981 87.2042 51.7911 92.1267C52.9191 93.511 54.5503 94.3912 56.3264 94.5742C58.1027 94.7571 59.879 94.2279 61.2656 93.1027C62.6508 91.9719 63.5314 90.3383 63.7143 88.5596C63.8972 86.781 63.3676 85.0021 62.2416 83.6132C59.1047 79.8427 56.5721 75.608 54.7341 71.0607C53.1033 66.9976 52.2625 62.661 52.2566 58.2829C52.2958 53.8751 53.167 49.5144 54.8242 45.43C56.6988 40.8152 59.2715 36.5158 62.4518 32.6823H62.4218ZM33.638 11.3159C33.7454 11.2115 33.841 11.0957 33.9233 10.9705C35.0063 9.65047 35.5429 7.96581 35.4228 6.26249C35.3029 4.55918 34.5351 2.96646 33.2776 1.81138C33.1787 1.69959 33.0679 1.5989 32.9473 1.51108C31.6021 0.415554 29.8859 -0.117973 28.1568 0.0219228C26.4276 0.161818 24.8194 0.96432 23.668 2.26183C16.2455 10.4412 10.2008 19.7719 5.77008 29.8895C1.8597 38.9341 -0.104732 48.7 0.00430255 58.5532C0.211583 68.4287 2.49854 78.1496 6.71602 87.0817C11.4777 97.0752 17.8318 106.229 25.5299 114.184L25.695 114.349C26.9338 115.579 28.6023 116.279 30.3479 116.301C32.0934 116.324 33.7793 115.667 35.0494 114.469L35.2146 114.319C36.4051 113.113 37.106 111.508 37.1815 109.814C37.2081 108.93 37.0601 108.049 36.7457 107.222C36.4314 106.395 35.9569 105.638 35.3497 104.995C28.735 98.1751 23.2508 90.3439 19.1035 81.7964C15.602 74.4782 13.6979 66.4987 13.5178 58.388C13.4562 50.2665 15.1089 42.2236 18.3677 34.7844C22.1815 26.2015 27.336 18.2797 33.638 11.3159ZM122.091 32.6823C120.996 31.3305 120.464 29.6081 120.607 27.874C120.749 26.1398 121.555 24.5275 122.857 23.373L123.278 23.0276C124.636 22.0185 126.324 21.5571 128.007 21.7351C129.69 21.9131 131.244 22.7176 132.362 23.9886C132.482 24.0996 132.588 24.2258 132.677 24.364C136.734 29.2985 140.005 34.829 142.377 40.7604C146.865 51.9728 146.902 64.476 142.482 75.7153C140.119 81.6653 136.83 87.2042 132.737 92.1267C131.609 93.511 129.978 94.3912 128.202 94.5742C126.425 94.7571 124.649 94.2279 123.263 93.1027C121.884 91.983 121.004 90.3638 120.815 88.5982C120.646 86.8135 121.185 85.0339 122.317 83.6433C125.453 79.8727 127.986 75.638 129.824 71.0907C131.455 67.0276 132.296 62.691 132.302 58.3129C132.262 53.9051 131.391 49.5444 129.734 45.4601C127.859 40.8452 125.287 36.5458 122.106 32.7123L122.091 32.6823ZM150.875 11.3159C150.767 11.2115 150.673 11.0957 150.59 10.9705C149.507 9.65047 148.97 7.96581 149.09 6.26249C149.21 4.55918 149.978 2.96646 151.236 1.81138C151.335 1.69959 151.444 1.5989 151.566 1.51108C152.911 0.415554 154.628 -0.117973 156.356 0.0219228C158.086 0.161818 159.694 0.96432 160.845 2.26183C168.246 10.4456 174.27 19.776 178.683 29.8895C182.608 38.9308 184.589 48.6969 184.494 58.5532C184.291 68.4276 182.009 78.1484 177.797 87.0817C173.033 97.0476 166.685 106.175 158.999 114.109L158.833 114.274C157.595 115.504 155.926 116.204 154.18 116.226C152.435 116.249 150.749 115.592 149.479 114.394L149.314 114.244C148.123 113.038 147.422 111.433 147.347 109.739C147.32 108.855 147.468 107.974 147.782 107.147C148.097 106.32 148.571 105.563 149.179 104.92C155.784 98.1125 161.263 90.2969 165.41 81.7664C168.932 74.4527 170.856 66.473 171.056 58.358C171.117 50.2365 169.464 42.1936 166.206 34.7544C162.371 26.1781 157.195 18.2664 150.875 11.3159Z" fill="#737384"/>
<defs>
<filter id="filter0_dddd_186_2" x="51.0571" y="21.5285" width="83.3" height="74.0601" filterUnits="userSpaceOnUse" color-interpolation-filters="sRGB">
<feFlood flood-opacity="0" result="BackgroundImageFix"/>
<feColorMatrix in="SourceAlpha" type="matrix" values="0 0 0 0 0 0 0 0 0 0 0 0 0 0 0 0 0 0 127 0" result="hardAlpha"/>
<feOffset dx="-2" dy="-3"/>
<feGaussianBlur stdDeviation="2"/>
<feColorMatrix type="matrix" values="0 0 0 0 0 0 0 0 0 0.847059 0 0 0 0 1 0 0 0 0.25 0"/>
<feBlend mode="normal" in2="BackgroundImageFix" result="effect1_dropShadow_186_2"/>
<feColorMatrix in="SourceAlpha" type="matrix" values="0 0 0 0 0 0 0 0 0 0 0 0 0 0 0 0 0 0 127 0" result="hardAlpha"/>
<feOffset dx="4" dy="-3"/>
<feGaussianBlur stdDeviation="2"/>
<feColorMatrix type="matrix" values="0 0 0 0 0 0 0 0 0 0.847059 0 0 0 0 1 0 0 0 0.25 0"/>
<feBlend mode="normal" in2="effect1_dropShadow_186_2" result="effect2_dropShadow_186_2"/>
<feColorMatrix in="SourceAlpha" type="matrix" values="0 0 0 0 0 0 0 0 0 0 0 0 0 0 0 0 0 0 127 0" result="hardAlpha"/>
<feOffset dx="4" dy="3"/>
<feGaussianBlur stdDeviation="2"/>
<feColorMatrix type="matrix" values="0 0 0 0 0 0 0 0 0 0.847059 0 0 0 0 1 0 0 0 0.25 0"/>
<feBlend mode="normal" in2="effect2_dropShadow_186_2" result="effect3_dropShadow_186_2"/>
<feColorMatrix in="SourceAlpha" type="matrix" values="0 0 0 0 0 0 0 0 0 0 0 0 0 0 0 0 0 0 127 0" result="hardAlpha"/>
<feOffset dx="-2" dy="3"/>
<feGaussianBlur stdDeviation="2"/>
<feColorMatrix type="matrix" values="0 0 0 0 0 0 0 0 0 0.847059 0 0 0 0 1 0 0 0 0.25 0"/>
<feBlend mode="normal" in2="effect3_dropShadow_186_2" result="effect4_dropShadow_186_2"/>
<feBlend mode="normal" in="SourceGraphic" in2="effect4_dropShadow_186_2" result="shape"/>
</filter>
<filter id="filter1_dddd_186_2" x="51.0571" y="21.5285" width="83.3" height="74.0601" filterUnits="userSpaceOnUse" color-interpolation-filters="sRGB">
<feFlood flood-opacity="0" result="BackgroundImageFix"/>
<feColorMatrix in="SourceAlpha" type="matrix" values="0 0 0 0 0 0 0 0 0 0 0 0 0 0 0 0 0 0 127 0" result="hardAlpha"/>
<feOffset dx="-2" dy="-3"/>
<feGaussianBlur stdDeviation="2"/>
<feColorMatrix type="matrix" values="0 0 0 0 0 0 0 0 0 0.847059 0 0 0 0 1 0 0 0 0.25 0"/>
<feBlend mode="normal" in2="BackgroundImageFix" result="effect1_dropShadow_186_2"/>
<feColorMatrix in="SourceAlpha" type="matrix" values="0 0 0 0 0 0 0 0 0 0 0 0 0 0 0 0 0 0 127 0" result="hardAlpha"/>
<feOffset dx="4" dy="-3"/>
<feGaussianBlur stdDeviation="2"/>
<feColorMatrix type="matrix" values="0 0 0 0 0 0 0 0 0 0.847059 0 0 0 0 1 0 0 0 0.25 0"/>
<feBlend mode="normal" in2="effect1_dropShadow_186_2" result="effect2_dropShadow_186_2"/>
<feColorMatrix in="SourceAlpha" type="matrix" values="0 0 0 0 0 0 0 0 0 0 0 0 0 0 0 0 0 0 127 0" result="hardAlpha"/>
<feOffset dx="4" dy="3"/>
<feGaussianBlur stdDeviation="2"/>
<feColorMatrix type="matrix" values="0 0 0 0 0 0 0 0 0 0.847059 0 0 0 0 1 0 0 0 0.25 0"/>
<feBlend mode="normal" in2="effect2_dropShadow_186_2" result="effect3_dropShadow_186_2"/>
<feColorMatrix in="SourceAlpha" type="matrix" values="0 0 0 0 0 0 0 0 0 0 0 0 0 0 0 0 0 0 127 0" result="hardAlpha"/>
<feOffset dx="-2" dy="3"/>
<feGaussianBlur stdDeviation="2"/>
<feColorMatrix type="matrix" values="0 0 0 0 0 0 0 0 0 0.847059 0 0 0 0 1 0 0 0 0.25 0"/>
<feBlend mode="normal" in2="effect3_dropShadow_186_2" result="effect4_dropShadow_186_2"/>
<feBlend mode="normal" in="SourceGraphic" in2="effect4_dropShadow_186_2" result="shape"/>
</filter>
</defs>
</svg>
